<svg
                  xmlns:mydata="http://www.w3.org/2000/svg"
                  mydata:contrastcolor="ffffff"
                  mydata:template="Default"
                  mydata:presentation="2.5"
                  mydata:layouttype="undefined"
                  mydata:specialfontid="undefined"
                  mydata:id1="551"
                  mydata:id2="677"
                  mydata:companyname="Super Activities"
                  mydata:companytagline="Unforgettable Moments!"
                  version="1.1"
                  xmlns="http://www.w3.org/2000/svg"
                  xmlns:xlink="http://www.w3.org/1999/xlink"
                  viewBox="0 0 550 470"
                >
                  <g
                    fill="#003a70"
                    fill-rule="nonzero"
                    stroke="none"
                    stroke-width="1"
                    stroke-linecap="butt"
                    stroke-linejoin="miter"
                    stroke-miterlimit="10"
                    stroke-dasharray=""
                    stroke-dashoffset="0"
                    font-family="none"
                    font-weight="none"
                    font-size="none"
                    text-anchor="none"
                    style="mix-blend-mode: normal"
                  >
                    <g
                      data-paper-data='{"isGlobalGroup":true,"bounds":{"x":65,"y":160.3338772392476,"width":420,"height":149.33224552150477}}'
                    >
                      <g data-paper-data='{"isSecondaryText":true}'>
                        <path
                          d="M65.16105,298.75091c0.16308,1.86975 0.48304,3.70743 1.09571,5.48408c0.53441,1.54944 1.20191,3.02786 2.50518,4.11013c0.83609,0.69404 1.78872,1.10157 2.89133,0.96194c1.36154,-0.17205 2.3914,-0.9347 3.23128,-1.97352c1.60737,-1.988 2.41277,-4.34389 3.04855,-6.76873c0.56441,-2.15316 0.83644,-4.35527 0.97469,-6.57255c0.04965,-0.79679 0.01862,-1.59875 0.02482,-2.39829c0.00276,-0.35374 -0.14412,-0.52682 -0.52614,-0.50959c-0.5089,0.0231 -1.01986,0.00379 -1.53014,0.00586c-0.54406,0.00207 -0.61681,0.07206 -0.61268,0.62785c0.01172,1.52807 -0.05034,3.04993 -0.24445,4.56938c-0.28893,2.26038 -0.75748,4.47387 -1.6084,6.59221c-0.49959,1.24431 -1.08813,2.4407 -2.12661,3.35265c-0.77369,0.67922 -1.47428,0.62681 -2.12833,-0.16998c-0.86057,-1.04848 -1.32258,-2.27934 -1.66046,-3.56813c-0.79506,-3.03131 -0.9647,-6.11434 -0.75369,-9.2284c0.03275,-0.48062 0.06309,-0.96125 0.09102,-1.44187c0.01758,-0.3041 -0.09137,-0.49476 -0.43029,-0.52614c-0.58785,-0.05482 -1.17294,-0.13722 -1.76045,-0.19652c-0.25272,-0.02586 -0.36581,0.11136 -0.39788,0.3634c-0.17032,1.33878 -0.25479,2.68205 -0.241,4.03152c-0.02069,1.08847 0.06413,2.17108 0.15791,3.25473z"
                          data-paper-data='{"glyphName":"U","glyphIndex":0,"firstGlyphOfWord":true,"word":1}'
                        ></path>
                        <path
                          d="M89.8372,296.23781c2.35175,3.86706 4.70763,7.73136 7.04697,11.606c0.22928,0.3796 0.51752,0.52958 0.9347,0.5382c0.55027,0.01172 1.10157,-0.04379 1.65115,0.04723c0.29892,0.04965 0.4227,-0.13412 0.43339,-0.41477c0.08309,-2.14488 0.19342,-4.28907 0.23928,-6.43499c0.02448,-1.1426 0.08482,-2.28452 0.11826,-3.42643c0.0231,-0.79679 0.01724,-1.59702 0.07034,-2.39347c0.08792,-1.31879 0.12481,-2.63895 0.1555,-3.95981c0.00759,-0.3234 -0.13309,-0.44718 -0.44408,-0.4427c-0.44132,0.00655 -0.89229,0.05206 -1.32154,-0.02103c-0.77024,-0.13067 -0.8161,-0.00965 -0.84437,0.69818c-0.08516,2.13074 -0.18067,4.26149 -0.24928,6.39258c-0.03827,1.18294 -0.11619,2.36519 -0.11654,3.5509c-0.00034,0.52614 -0.05827,1.06158 -0.07068,1.60047c-0.13171,-0.02241 -0.1386,-0.11964 -0.17687,-0.18239c-2.3976,-3.93705 -4.79245,-7.87548 -7.18695,-11.81425c-0.08688,-0.14308 -0.16515,-0.30548 -0.36788,-0.2741c-0.72749,0.1124 -1.45842,0.03 -2.18729,0.04758c-0.2972,0.00724 -0.42994,0.11895 -0.41891,0.41925c0.05551,1.48945 -0.0924,2.97511 -0.08516,4.46422c0.01,2.04076 0.06482,4.08427 -0.01793,6.12192c-0.08102,1.99973 -0.02034,3.99739 -0.06551,5.99539c-0.00827,0.37512 0.14998,0.52751 0.51407,0.52165c0.52407,-0.00862 1.04813,0.00034 1.5722,-0.00241c0.48924,-0.00276 0.54441,-0.04999 0.53855,-0.55268c-0.04551,-3.88809 0.14205,-7.7748 0.08516,-11.66289c-0.0031,-0.20583 -0.00034,-0.41201 -0.00034,-0.71783c0.10378,0.15894 0.15032,0.22618 0.19377,0.29617z"
                          data-paper-data='{"glyphName":"N","glyphIndex":1,"word":1}'
                        ></path>
                        <path
                          d="M108.50462,308.56977c0.00103,0.57578 0.05482,0.62785 0.64784,0.63026c0.45477,0.00207 0.90988,0.00172 1.36499,0.00034c0.57923,-0.00138 0.60819,-0.02862 0.60923,-0.60785c0.00379,-2.32934 -0.01896,-4.65902 0.07516,-6.98767c0.01379,-0.34375 0.08482,-0.41339 0.45339,-0.3965c1.38843,0.06309 2.77686,0.16963 4.16909,0.12964c0.21307,-0.00586 0.35168,-0.08964 0.34375,-0.31651c-0.02103,-0.57992 0.04999,-1.15433 0.0893,-1.7308c0.02413,-0.35926 -0.15653,-0.48028 -0.49614,-0.49476c-1.38809,-0.05896 -2.7741,-0.16998 -4.1646,-0.15756c-0.32409,0.00276 -0.39305,-0.14343 -0.39064,-0.42856c0.00965,-1.13054 0.00379,-2.26142 0.00586,-3.39195c0,-0.10964 0.01965,-0.21928 0.0262,-0.32927c0.01517,-0.25169 0.13688,-0.35202 0.39822,-0.35547c0.50924,-0.00655 1.01745,-0.06482 1.52669,-0.07171c1.88733,-0.02551 3.77569,0.04275 5.66268,-0.07689c0.35823,-0.02276 0.50235,-0.14033 0.48269,-0.49028c-0.03,-0.53613 -0.06654,-1.07296 -0.06654,-1.60944c0,-0.34582 -0.14205,-0.47683 -0.47269,-0.45097c-0.13688,0.01103 -0.27548,0.00379 -0.41339,0.00103c-3.03304,-0.0593 -6.06366,0.12481 -9.09669,0.08551c-0.46235,-0.00586 -0.5844,0.12136 -0.58716,0.59371c-0.00621,1.07503 -0.04965,2.14936 -0.06723,3.22335c-0.05758,3.54193 0.03413,7.08559 -0.10068,10.62717c0,0.8685 -0.00103,1.73735 0.00069,2.60516z"
                          data-paper-data='{"glyphName":"F","glyphIndex":2,"word":1}'
                        ></path>
                        <path
                          d="M140.10277,306.7714c2.22039,-2.05524 3.16302,-4.62902 2.8534,-7.65551c-0.20825,-2.03834 -1.02434,-3.80362 -2.46932,-5.2286c-1.81251,-1.78734 -4.00601,-2.59413 -6.57704,-2.28038c-1.74528,0.21307 -3.26197,0.92746 -4.49801,2.14281c-2.45725,2.41622 -3.24404,5.36306 -2.47828,8.69847c0.84678,3.68881 4.21598,6.47153 7.73722,6.3581c2.15109,0.05275 3.94567,-0.65991 5.43202,-2.0349zM133.10028,294.48238c1.86595,-0.64922 3.58365,-0.34478 5.10689,0.90229c1.59461,1.30534 2.27693,3.05855 2.1835,5.07c-0.12964,2.78686 -1.99662,5.20964 -4.71177,5.66681c-1.81665,0.30582 -3.39919,-0.22342 -4.68936,-1.56358c-1.15329,-1.19811 -1.70528,-2.63378 -1.70804,-4.62868c-0.08137,-2.18177 1.56048,-4.66109 3.81879,-5.44684z"
                          data-paper-data='{"glyphName":"O","glyphIndex":3,"word":1}'
                        ></path>
                        <path
                          d="M150.67323,308.52338c0.00138,0.49476 0.07447,0.56544 0.58268,0.56992c0.4689,0.00414 0.9378,0.00207 1.40671,0.00103c0.60854,-0.00138 0.63164,-0.02241 0.63233,-0.62647c0.00138,-1.50324 0.00379,-3.00614 -0.00241,-4.50939c-0.00103,-0.25583 0.03655,-0.39995 0.35271,-0.41615c0.94642,-0.04861 1.89112,-0.15446 2.80582,-0.41132c0.40684,-0.11447 0.60681,-0.03758 0.7892,0.36409c0.81299,1.79183 1.66736,3.56469 2.49414,5.35031c0.15619,0.33754 0.34306,0.41822 0.67715,0.24721c0.46511,-0.23824 0.94711,-0.44339 1.41705,-0.67267c0.4789,-0.23342 0.47959,-0.25721 0.24755,-0.74955c-0.82678,-1.75528 -1.64426,-3.51538 -2.48277,-5.26514c-0.13998,-0.29203 -0.08275,-0.42649 0.18549,-0.58061c0.79265,-0.4558 1.50738,-1.00779 2.06765,-1.74666c0.80886,-1.06675 1.2188,-2.2328 0.98366,-3.58503c-0.2741,-1.57668 -1.23776,-2.67998 -2.49311,-3.54848c-2.29624,-1.58875 -4.92174,-2.04593 -7.6431,-2.0673c-0.512,-0.00414 -1.04296,-0.0231 -1.56151,0.09585c-0.24721,0.05689 -0.30341,0.1617 -0.30134,0.3896c0.01241,1.29534 -0.03517,2.59034 -0.05792,3.88533c-0.06241,3.54193 0.03413,7.08593 -0.10102,10.62786c0,0.88264 -0.00207,1.76493 0.00103,2.64757zM153.437,293.84675c0.01965,-0.23273 0.04792,-0.33789 0.32685,-0.31961c1.98352,0.12929 3.86327,0.58406 5.45167,1.84147c1.21052,0.9578 1.52497,2.22452 0.25548,3.43919c-0.28031,0.26824 -0.58337,0.5051 -0.91229,0.70197c-1.31982,0.78955 -2.76514,1.19466 -4.28666,1.33258c-0.89264,0.08102 -0.89402,0.06413 -0.89402,-0.84264c0,-0.81265 0,-1.6253 0,-2.62826c0.02276,-1.04744 -0.04517,-2.28693 0.05896,-3.52469z"
                          data-paper-data='{"glyphName":"R","glyphIndex":4,"word":1}'
                        ></path>
                        <path
                          d="M171.70944,305.43429c1.26224,2.10006 2.95511,3.60951 5.48477,3.94567c2.07834,0.27617 3.77121,-0.44097 5.04035,-2.08385c0.95332,-1.23431 1.52945,-2.66757 1.93939,-4.16426c0.2379,-0.8685 0.22307,-0.88505 1.11537,-0.89471c0.34444,-0.00379 0.45959,-0.14653 0.46476,-0.47132c0.00724,-0.48062 -0.0431,-0.96228 0.05034,-1.44291c0.09757,-0.50166 -0.01793,-0.64198 -0.53269,-0.70266c-0.16343,-0.01931 -0.33064,-0.01207 -0.49579,-0.01138c-0.89471,0.00276 -1.787,-0.07447 -2.68067,-0.10585c-1.18122,-0.04172 -2.36244,-0.10619 -3.54434,-0.14515c-0.29237,-0.00965 -0.44063,0.07344 -0.49442,0.39926c-0.09344,0.5651 -0.02138,1.12916 -0.06482,1.6908c-0.03138,0.40477 0.14757,0.55648 0.52682,0.53441c0.95159,-0.05517 1.89629,0.13067 2.8472,0.08137c0.2841,-0.01483 0.36099,0.07516 0.28031,0.35995c-0.31272,1.10571 -0.73162,2.16695 -1.38223,3.11578c-0.47338,0.69025 -1.10364,1.19639 -1.98525,1.26259c-0.77472,0.05827 -1.52186,-0.08275 -2.1766,-0.50303c-2.14522,-1.37705 -3.06372,-3.45677 -3.25059,-5.90471c-0.11619,-1.52186 0.30203,-2.94512 1.05434,-4.26356c1.00331,-1.75804 2.67722,-3.11751 5.01449,-2.67584c1.1988,0.22618 2.28141,0.62509 3.03924,1.64323c0.10378,0.13895 0.21583,0.21583 0.38374,0.13274c0.47821,-0.23652 1.00573,-0.27824 1.516,-0.38581c0.57061,-0.12033 0.68336,-0.28996 0.43649,-0.83023c-0.35133,-0.76886 -0.92815,-1.35671 -1.61185,-1.84147c-1.1626,-0.82506 -2.47242,-1.19811 -3.88016,-1.35982c-2.0149,-0.23135 -3.77569,0.32582 -5.25894,1.65253c-2.23694,2.00076 -3.22577,4.58869 -3.32851,7.06387c0.00172,2.42863 0.49235,4.23701 1.49324,5.90437z"
                          data-paper-data='{"glyphName":"G","glyphIndex":5,"word":1}'
                        ></path>
                        <path
                          d="M193.51233,308.44304c0,0.7661 0.00069,0.75024 0.74852,0.7699c1.80596,0.04723 3.60778,-0.12481 5.41375,-0.0893c0.88091,0.01724 1.76183,0.01552 2.64171,-0.07309c0.26721,-0.02689 0.36202,-0.12309 0.35788,-0.38029c-0.00896,-0.53751 0,-1.07503 -0.00241,-1.61288c-0.00207,-0.532 -0.02172,-0.55406 -0.56923,-0.55234c-1.83251,0.00586 -3.6664,-0.0462 -5.49649,0.08551c-0.35409,0.02551 -0.47338,-0.08413 -0.48028,-0.45718c-0.02724,-1.44808 0.08964,-2.89202 0.08895,-4.33872c-0.00034,-0.30754 0.15067,-0.36547 0.41236,-0.36512c1.12916,0.00172 2.25762,0.00586 3.38644,-0.06758c0.40925,-0.02655 0.52958,-0.1717 0.50993,-0.54958c-0.02689,-0.52234 -0.12929,-1.04089 -0.08482,-1.56634c0.03241,-0.38409 -0.16687,-0.54579 -0.52096,-0.50166c-1.14053,0.1417 -2.28762,-0.00345 -3.42746,0.09688c-0.2079,0.01827 -0.27617,-0.04275 -0.27203,-0.23928c0.02965,-1.3774 -0.04068,-2.75514 0.03827,-4.13323c0.02724,-0.47511 0.25238,-0.56475 0.65164,-0.57061c1.10088,-0.0162 2.20453,-0.01414 3.30127,-0.09585c0.67474,-0.05034 1.34844,-0.03586 2.0211,-0.07964c0.45959,-0.03 0.57303,-0.14102 0.51062,-0.59716c-0.06585,-0.48097 -0.06585,-0.9609 -0.0693,-1.44256c-0.00345,-0.52751 -0.0431,-0.56854 -0.5651,-0.56889c-1.36257,-0.00138 -2.72101,0.10274 -4.08151,0.15756c-1.25017,0.05034 -2.50173,0.06516 -3.74983,0.16929c-0.48614,0.04068 -0.58716,0.12964 -0.59268,0.63302c-0.01103,1.04675 -0.05689,2.09351 -0.07137,3.13923c-0.04965,3.59641 0.02965,7.19385 -0.09861,10.78991c0,0.81334 0,1.62702 -0.00034,2.44001z"
                          data-paper-data='{"glyphName":"E","glyphIndex":6,"word":1}'
                        ></path>
                        <path
                          d="M217.1106,294.24739c0.0262,-0.37512 0.16791,-0.48614 0.53441,-0.48097c1.30948,0.01862 2.6193,-0.00172 3.92878,0.01241c0.3865,0.00414 0.55992,-0.12791 0.54303,-0.52648c-0.01862,-0.44028 -0.00345,-0.88229 -0.00379,-1.32327c-0.00069,-0.70715 -0.0231,-0.74231 -0.74852,-0.74542c-2.24694,-0.01 -4.49422,-0.00862 -6.74115,-0.01379c-0.20652,-0.00069 -0.41408,-0.00483 -0.61923,-0.02448c-1.04572,-0.10068 -2.09351,-0.0431 -3.14061,-0.05172c-0.29996,-0.00241 -0.45339,0.14619 -0.44753,0.46132c0.00862,0.48235 0.00069,0.96504 0.00138,1.44739c0.00103,0.62371 0.06137,0.6868 0.6837,0.68887c0.93746,0.00276 1.87492,0 2.81238,0.00103c0.55992,0.00069 0.56751,0.00172 0.55544,0.57854c-0.0069,0.32995 -0.05965,0.65922 -0.06241,0.98917c-0.0362,4.42388 -0.06482,8.84776 -0.10412,13.27164c-0.00345,0.39891 0.17377,0.54682 0.54648,0.54268c0.50993,-0.00586 1.02021,0.00241 1.53014,-0.00138c0.51372,-0.00345 0.60992,-0.08723 0.60095,-0.60406c-0.0562,-3.28059 0.12205,-6.55911 0.0824,-10.05208c0.04482,-1.24742 -0.05241,-2.7086 0.04827,-4.16943z"
                          data-paper-data='{"glyphName":"T","glyphIndex":7,"word":1}'
                        ></path>
                        <path
                          d="M236.13712,294.24739c0.0262,-0.37512 0.16791,-0.48614 0.53441,-0.48097c1.30948,0.01862 2.6193,-0.00172 3.92878,0.01241c0.3865,0.00414 0.55992,-0.12791 0.54303,-0.52648c-0.01862,-0.44028 -0.00345,-0.88229 -0.00379,-1.32327c-0.00069,-0.70715 -0.0231,-0.74231 -0.74852,-0.74542c-2.24694,-0.01 -4.49422,-0.00862 -6.74115,-0.01379c-0.20652,-0.00069 -0.41408,-0.00483 -0.61923,-0.02448c-1.04572,-0.10068 -2.09351,-0.0431 -3.14061,-0.05172c-0.29996,-0.00241 -0.45339,0.14619 -0.44753,0.46132c0.00862,0.48235 0.00069,0.96504 0.00138,1.44739c0.00103,0.62371 0.06137,0.6868 0.6837,0.68887c0.93746,0.00276 1.87492,0 2.81238,0.00103c0.55992,0.00069 0.56751,0.00172 0.55544,0.57854c-0.0069,0.32995 -0.05965,0.65922 -0.06241,0.98917c-0.0362,4.42388 -0.06482,8.84776 -0.10412,13.27164c-0.00345,0.39891 0.17377,0.54682 0.54648,0.54268c0.50993,-0.00586 1.02021,0.00241 1.53014,-0.00138c0.51372,-0.00345 0.60992,-0.08723 0.60095,-0.60406c-0.0562,-3.28059 0.12205,-6.55911 0.0824,-10.05208c0.04482,-1.24742 -0.05241,-2.7086 0.04827,-4.16943z"
                          data-paper-data='{"glyphName":"T","glyphIndex":8,"word":1}'
                        ></path>
                        <path
                          d="M260.06039,301.34918c-0.18584,-2.04248 -0.50545,-4.05876 -1.10157,-6.02159c-0.46132,-1.51945 -1.02365,-2.99476 -2.20142,-4.14357c-1.17708,-1.14777 -2.88064,-1.1464 -4.06772,-0.00103c-1.07503,1.0371 -1.65736,2.35106 -2.1304,3.72398c-1.06503,3.09096 -1.46359,6.30535 -1.63736,9.5456c-0.07206,1.3412 -0.20377,2.6917 -0.03241,4.04324c0.04551,0.35892 0.15894,0.50752 0.50407,0.46097c0.50648,-0.06861 1.01538,-0.10516 1.52428,-0.07309c0.39133,0.02448 0.53579,-0.11998 0.53165,-0.52027c-0.01345,-1.25224 -0.03172,-2.50552 0.07068,-3.75604c0.01827,-0.22342 0.04896,-0.35754 0.31858,-0.36478c1.77459,-0.04689 3.54883,-0.0993 5.32238,-0.16756c0.38477,-0.01483 0.5182,0.13929 0.51407,0.50269c-0.00931,0.82678 0.00793,1.65391 -0.00552,2.4807c-0.01034,0.63233 -0.04999,1.26397 -0.07896,1.8956c-0.01207,0.26065 0.0824,0.3796 0.36512,0.43546c0.61302,0.12102 1.23673,0.02034 1.84871,0.1417c0.30582,0.06034 0.40374,-0.16549 0.40719,-0.43511c0.01241,-0.9909 0.15377,-1.97801 0.0824,-2.80169c0.01827,-1.76597 -0.08895,-3.35541 -0.23376,-4.94519zM252.25525,301.63121c-0.37064,-0.01103 -0.47752,-0.05896 -0.4196,-0.48407c0.26824,-1.96422 0.64302,-3.89981 1.33292,-5.76404c0.27755,-0.7499 0.59095,-1.48325 1.13019,-2.09316c0.39029,-0.44132 0.45373,-0.44821 0.84713,0.01207c0.64991,0.76093 0.96677,1.69253 1.25638,2.6224c0.52372,1.6815 0.79024,3.4185 1.014,5.16137c0.02862,0.22273 -0.01379,0.37305 -0.29306,0.3734c-0.71542,0.00069 -1.42601,0.14412 -2.14454,0.07758c-0.91057,-0.06068 -1.81251,0.12102 -2.72342,0.09447z"
                          data-paper-data='{"glyphName":"A","glyphIndex":9,"word":1}'
                        ></path>
                        <path
                          d="M278.23794,298.23478c1.43567,-1.32844 1.82286,-3.21887 0.6906,-4.90968c-0.41753,-0.62336 -0.95022,-1.14915 -1.58323,-1.54944c-2.67102,-1.69011 -5.5982,-2.06489 -8.67089,-1.6384c-0.25824,0.03586 -0.41684,0.18204 -0.33754,0.49648c0.04965,0.19618 0.0462,0.40891 0.0462,0.61405c0.00207,5.62406 0.00172,11.24812 0.00172,16.87218c0,0.13757 0.00276,0.27548 0.00241,0.41339c-0.00069,0.2148 0.09413,0.33789 0.31927,0.34202c0.57785,0.01103 1.15019,0.10654 1.73183,0.07103c1.52117,-0.09275 3.04303,-0.1455 4.54145,-0.47787c1.35878,-0.30168 2.7186,-0.57544 3.88016,-1.41395c1.08537,-0.78334 1.67736,-1.79803 1.67736,-3.17543c0,-1.25638 -0.59233,-2.20763 -1.39085,-3.07406c-0.63026,-0.68404 -1.41739,-1.16019 -2.31382,-1.57013c0.51614,-0.32478 0.99193,-0.61819 1.40533,-1.00021zM271.00617,301.28091c-0.00103,-0.20549 0.03827,-0.34616 0.2903,-0.34616c1.67563,-0.00069 3.3192,0.16791 4.85727,0.89988c0.62129,0.29582 1.12467,0.73231 1.50635,1.31051c0.44339,0.67163 0.31203,1.32947 -0.35547,1.78079c-0.87988,0.59475 -1.90009,0.76852 -2.90822,0.97401c-0.96814,0.19721 -1.94146,0.35202 -2.93581,0.36547c-0.37753,0.00517 -0.47063,-0.12585 -0.45959,-0.47787c0.02276,-0.7299 0.0069,-1.46049 0.0069,-2.19108c0.00069,-0.77196 0.0031,-1.54358 -0.00172,-2.31555zM270.99928,292.93412c-0.00448,-0.26927 0.09654,-0.38167 0.36409,-0.35547c1.75355,0.1717 3.46849,0.47959 4.88278,1.63805c0.8223,0.6737 1.0802,1.43842 0.00483,2.25486c-0.98745,0.7499 -2.14798,1.00952 -3.33989,1.17708c-0.50407,0.07103 -1.01124,0.09068 -1.52083,0.08999c-0.28341,-0.00034 -0.39236,-0.09137 -0.38684,-0.38202c0.01448,-0.74369 0.00483,-1.48773 0.00483,-2.23176c-0.00172,0 -0.00345,0 -0.00517,0c0,-0.73025 0.00724,-1.46049 -0.00379,-2.19074z"
                          data-paper-data='{"glyphName":"B","glyphIndex":10,"word":1}'
                        ></path>
                        <path
                          d="M297.16459,309.12157c0.45408,-0.00138 0.56234,-0.11274 0.56441,-0.56303c0.00207,-0.48235 -0.0031,-0.9647 -0.01345,-1.44704c-0.01241,-0.57992 -0.04482,-0.61026 -0.60923,-0.61061c-1.90181,-0.00103 -3.80396,0 -5.70612,-0.00069c-0.5351,0 -0.52889,-0.00138 -0.53751,-0.55268c-0.03655,-2.30141 0.11378,-4.59972 0.09275,-6.90182c-0.0162,-1.77631 -0.06585,-3.55434 0.05068,-5.331c0.03896,-0.59061 0.01586,-1.18501 0.01827,-1.77769c0.00138,-0.3303 -0.13412,-0.51062 -0.49786,-0.50028c-0.55096,0.01586 -1.10295,0.01517 -1.65391,0c-0.33064,-0.00896 -0.4758,0.10723 -0.47063,0.45339c0.0162,1.07468 -0.04275,2.14833 -0.06206,3.22198c-0.05654,3.11337 0.01689,6.22777 -0.0924,9.34114c-0.04344,1.2388 0.03827,2.48277 -0.02413,3.72018c-0.03827,0.76093 0.39512,0.94746 0.96021,0.94918c1.30913,0.00379 2.61861,0.00138 3.92809,0.00103c1.35085,0 2.7017,0.00276 4.0529,-0.00207z"
                          data-paper-data='{"glyphName":"L","glyphIndex":11,"word":1}'
                        ></path>
                        <path
                          d="M304.06807,308.44304c0,0.7661 0.00069,0.75024 0.74852,0.7699c1.80596,0.04723 3.60778,-0.12481 5.41375,-0.0893c0.88091,0.01724 1.76183,0.01552 2.64171,-0.07309c0.26721,-0.02689 0.36202,-0.12309 0.35788,-0.38029c-0.00896,-0.53751 0,-1.07503 -0.00241,-1.61288c-0.00207,-0.532 -0.02172,-0.55406 -0.56923,-0.55234c-1.83251,0.00586 -3.6664,-0.0462 -5.49649,0.08551c-0.35409,0.02551 -0.47338,-0.08413 -0.48028,-0.45718c-0.02724,-1.44808 0.08964,-2.89202 0.08895,-4.33872c-0.00034,-0.30754 0.15067,-0.36547 0.41236,-0.36512c1.12916,0.00172 2.25762,0.00586 3.38644,-0.06758c0.40925,-0.02655 0.52958,-0.1717 0.50993,-0.54958c-0.02689,-0.52234 -0.12929,-1.04089 -0.08482,-1.56634c0.03241,-0.38409 -0.16687,-0.54579 -0.52096,-0.50166c-1.14053,0.1417 -2.28762,-0.00345 -3.42746,0.09688c-0.2079,0.01827 -0.27617,-0.04275 -0.27203,-0.23928c0.02965,-1.3774 -0.04068,-2.75514 0.03827,-4.13323c0.02724,-0.47511 0.25238,-0.56475 0.65164,-0.57061c1.10088,-0.0162 2.20453,-0.01414 3.30127,-0.09585c0.67474,-0.05034 1.34844,-0.03586 2.0211,-0.07964c0.45959,-0.03 0.57303,-0.14102 0.51062,-0.59716c-0.06585,-0.48097 -0.06585,-0.9609 -0.0693,-1.44256c-0.00345,-0.52751 -0.0431,-0.56854 -0.5651,-0.56889c-1.36257,-0.00138 -2.72101,0.10274 -4.08151,0.15756c-1.25017,0.05034 -2.50173,0.06516 -3.74983,0.16929c-0.48614,0.04068 -0.58716,0.12964 -0.59268,0.63302c-0.01103,1.04675 -0.05689,2.09351 -0.07137,3.13923c-0.04965,3.59641 0.02965,7.19385 -0.09861,10.78991c0,0.81334 0,1.62702 -0.00034,2.44001z"
                          data-paper-data='{"glyphName":"E","glyphIndex":12,"lastGlyphOfWord":true,"word":1}'
                        ></path>
                        <path
                          d="M344.3803,298.94813c0.00034,3.08854 -0.00069,6.17743 0.00103,9.26598c0,0.52545 0.05068,0.57509 0.56027,0.57785c0.50993,0.00276 1.0209,-0.0162 1.53014,0.00586c0.3834,0.01655 0.55854,-0.10516 0.53786,-0.51476c-0.02586,-0.5089 -0.00586,-1.01986 -0.00586,-1.53014c0,-4.96415 0.00034,-9.92796 -0.00035,-14.89176c0,-0.52062 -0.04206,-0.5651 -0.5582,-0.57889c-0.33064,-0.00862 -0.66715,0.03206 -0.99159,-0.01517c-0.69301,-0.10102 -1.02814,0.1586 -1.29741,0.83299c-1.23845,3.10303 -2.54862,6.17778 -3.83431,9.26184c-0.3041,0.7299 -0.61302,1.45842 -0.94263,2.24211c-0.07206,-0.11378 -0.11791,-0.16446 -0.13998,-0.22376c-0.61716,-1.66219 -1.22776,-3.32713 -1.84837,-4.98829c-0.8423,-2.25349 -1.69701,-4.50284 -2.53138,-6.75942c-0.09826,-0.26548 -0.22687,-0.36754 -0.50545,-0.36168c-0.73025,0.01517 -1.46153,0.01241 -2.19212,0.00552c-0.30996,-0.0031 -0.44201,0.11481 -0.44546,0.4396c-0.01655,1.62599 -0.05999,3.25163 -0.07551,4.87761c-0.01379,1.43394 0.02758,2.86892 -0.00965,4.30183c-0.06344,2.43932 -0.08688,4.8783 -0.07551,7.31797c0.00207,0.50476 0.06999,0.57371 0.5744,0.57854c0.46856,0.00448 0.93746,0.00172 1.40636,0.00103c0.62405,-0.00103 0.65026,-0.01758 0.63991,-0.65888c-0.05482,-3.41919 0.12929,-6.83631 0.08482,-10.25515c-0.00069,-0.06172 0,-0.12378 0,-0.18584c0.24204,0.48821 0.42718,0.98573 0.61268,1.48256c0.96677,2.58861 1.92801,5.17929 2.9034,7.76446c0.42477,1.12571 0.43822,1.12088 1.62874,1.10709c0.12378,-0.00138 0.2479,-0.00414 0.37202,-0.00862c0.32616,-0.01138 0.54751,-0.13136 0.70714,-0.4558c0.97849,-1.98973 1.7339,-4.07358 2.61688,-6.10331c0.4258,-0.97849 0.82506,-1.96835 1.27914,-3.05579c0,0.25307 0,0.38891 -0.00103,0.52441z"
                          data-paper-data='{"glyphName":"M","glyphIndex":13,"firstGlyphOfWord":true,"word":2}'
                        ></path>
                        <path
                          d="M369.14784,306.7714c2.22039,-2.05524 3.16302,-4.62902 2.8534,-7.65551c-0.20825,-2.03834 -1.02434,-3.80362 -2.46932,-5.2286c-1.81251,-1.78734 -4.00601,-2.59413 -6.57704,-2.28038c-1.74528,0.21307 -3.26197,0.92746 -4.49801,2.14281c-2.45725,2.41622 -3.24404,5.36306 -2.47828,8.69847c0.84678,3.68881 4.21598,6.47153 7.73722,6.3581c2.15109,0.05275 3.94567,-0.65991 5.43202,-2.0349zM362.14535,294.48238c1.86595,-0.64922 3.58365,-0.34478 5.10689,0.90229c1.59461,1.30534 2.27693,3.05855 2.1835,5.07c-0.12964,2.78686 -1.99662,5.20964 -4.71177,5.66681c-1.81665,0.30582 -3.39919,-0.22342 -4.68936,-1.56358c-1.15329,-1.19811 -1.70528,-2.63378 -1.70804,-4.62868c-0.08137,-2.18177 1.56048,-4.66109 3.81879,-5.44684z"
                          data-paper-data='{"glyphName":"O","glyphIndex":14,"word":2}'
                        ></path>
                        <path
                          d="M392.88028,298.94813c0.00034,3.08854 -0.00069,6.17743 0.00103,9.26598c0,0.52545 0.05068,0.57509 0.56027,0.57785c0.50993,0.00276 1.0209,-0.0162 1.53014,0.00586c0.3834,0.01655 0.55854,-0.10516 0.53786,-0.51476c-0.02586,-0.5089 -0.00586,-1.01986 -0.00586,-1.53014c0,-4.96415 0.00034,-9.92796 -0.00035,-14.89176c0,-0.52062 -0.04206,-0.5651 -0.5582,-0.57889c-0.33064,-0.00862 -0.66715,0.03206 -0.99159,-0.01517c-0.69301,-0.10102 -1.02814,0.1586 -1.29741,0.83299c-1.23845,3.10303 -2.54862,6.17778 -3.83431,9.26184c-0.3041,0.7299 -0.61302,1.45842 -0.94263,2.24211c-0.07206,-0.11378 -0.11791,-0.16446 -0.13998,-0.22376c-0.61716,-1.66219 -1.22776,-3.32713 -1.84837,-4.98829c-0.8423,-2.25349 -1.69701,-4.50284 -2.53138,-6.75942c-0.09826,-0.26548 -0.22687,-0.36754 -0.50545,-0.36168c-0.73025,0.01517 -1.46153,0.01241 -2.19212,0.00552c-0.30996,-0.0031 -0.44201,0.11481 -0.44546,0.4396c-0.01655,1.62599 -0.05999,3.25163 -0.07551,4.87761c-0.01379,1.43394 0.02758,2.86892 -0.00965,4.30183c-0.06344,2.43932 -0.08688,4.8783 -0.07551,7.31797c0.00207,0.50476 0.06999,0.57371 0.5744,0.57854c0.46856,0.00448 0.93746,0.00172 1.40636,0.00103c0.62405,-0.00103 0.65026,-0.01758 0.63991,-0.65888c-0.05482,-3.41919 0.12929,-6.83631 0.08482,-10.25515c-0.00069,-0.06172 0,-0.12378 0,-0.18584c0.24204,0.48821 0.42718,0.98573 0.61268,1.48256c0.96677,2.58861 1.92801,5.17929 2.9034,7.76446c0.42477,1.12571 0.43822,1.12088 1.62874,1.10709c0.12378,-0.00138 0.2479,-0.00414 0.37202,-0.00862c0.32616,-0.01138 0.54751,-0.13136 0.70714,-0.4558c0.97849,-1.98973 1.7339,-4.07358 2.61688,-6.10331c0.4258,-0.97849 0.82506,-1.96835 1.27914,-3.05579c0,0.25307 0,0.38891 -0.00103,0.52441z"
                          data-paper-data='{"glyphName":"M","glyphIndex":15,"word":2}'
                        ></path>
                        <path
                          d="M404.19706,308.44304c0,0.7661 0.00069,0.75024 0.74852,0.7699c1.80596,0.04723 3.60778,-0.12481 5.41375,-0.0893c0.88091,0.01724 1.76183,0.01552 2.64171,-0.07309c0.26721,-0.02689 0.36202,-0.12309 0.35788,-0.38029c-0.00896,-0.53751 0,-1.07503 -0.00241,-1.61288c-0.00207,-0.532 -0.02172,-0.55406 -0.56923,-0.55234c-1.83251,0.00586 -3.6664,-0.0462 -5.49649,0.08551c-0.35409,0.02551 -0.47338,-0.08413 -0.48028,-0.45718c-0.02724,-1.44808 0.08964,-2.89202 0.08895,-4.33872c-0.00034,-0.30754 0.15067,-0.36547 0.41236,-0.36512c1.12916,0.00172 2.25762,0.00586 3.38644,-0.06758c0.40925,-0.02655 0.52958,-0.1717 0.50993,-0.54958c-0.02689,-0.52234 -0.12929,-1.04089 -0.08482,-1.56634c0.03241,-0.38409 -0.16687,-0.54579 -0.52096,-0.50166c-1.14053,0.1417 -2.28762,-0.00345 -3.42746,0.09688c-0.2079,0.01827 -0.27617,-0.04275 -0.27203,-0.23928c0.02965,-1.3774 -0.04068,-2.75514 0.03827,-4.13323c0.02724,-0.47511 0.25238,-0.56475 0.65164,-0.57061c1.10088,-0.0162 2.20453,-0.01414 3.30127,-0.09585c0.67474,-0.05034 1.34844,-0.03586 2.0211,-0.07964c0.45959,-0.03 0.57303,-0.14102 0.51062,-0.59716c-0.06585,-0.48097 -0.06585,-0.9609 -0.0693,-1.44256c-0.00345,-0.52751 -0.0431,-0.56854 -0.5651,-0.56889c-1.36257,-0.00138 -2.72101,0.10274 -4.08151,0.15756c-1.25017,0.05034 -2.50173,0.06516 -3.74983,0.16929c-0.48614,0.04068 -0.58716,0.12964 -0.59268,0.63302c-0.01103,1.04675 -0.05689,2.09351 -0.07137,3.13923c-0.04965,3.59641 0.02965,7.19385 -0.09861,10.78991c0,0.81334 0,1.62702 -0.00034,2.44001z"
                          data-paper-data='{"glyphName":"E","glyphIndex":16,"word":2}'
                        ></path>
                        <path
                          d="M424.34072,296.23781c2.35175,3.86706 4.70763,7.73136 7.04697,11.606c0.22928,0.3796 0.51752,0.52958 0.9347,0.5382c0.55027,0.01172 1.10157,-0.04379 1.65115,0.04723c0.29892,0.04965 0.4227,-0.13412 0.43339,-0.41477c0.08309,-2.14488 0.19342,-4.28907 0.23928,-6.43499c0.02448,-1.1426 0.08482,-2.28452 0.11826,-3.42643c0.0231,-0.79679 0.01724,-1.59702 0.07034,-2.39347c0.08792,-1.31879 0.12481,-2.63895 0.1555,-3.95981c0.00759,-0.3234 -0.13309,-0.44718 -0.44408,-0.4427c-0.44132,0.00655 -0.89229,0.05206 -1.32154,-0.02103c-0.77024,-0.13067 -0.8161,-0.00965 -0.84437,0.69818c-0.08516,2.13074 -0.18067,4.26149 -0.24928,6.39258c-0.03827,1.18294 -0.11619,2.36519 -0.11654,3.5509c-0.00034,0.52614 -0.05827,1.06158 -0.07068,1.60047c-0.13171,-0.02241 -0.1386,-0.11964 -0.17687,-0.18239c-2.3976,-3.93705 -4.79245,-7.87548 -7.18695,-11.81425c-0.08688,-0.14308 -0.16515,-0.30548 -0.36788,-0.2741c-0.72749,0.1124 -1.45842,0.03 -2.18729,0.04758c-0.2972,0.00724 -0.42994,0.11895 -0.41891,0.41925c0.05551,1.48945 -0.0924,2.97511 -0.08516,4.46422c0.01,2.04076 0.06482,4.08427 -0.01793,6.12192c-0.08102,1.99973 -0.02034,3.99739 -0.06551,5.99539c-0.00827,0.37512 0.14998,0.52751 0.51407,0.52165c0.52407,-0.00862 1.04813,0.00034 1.5722,-0.00241c0.48924,-0.00276 0.54441,-0.04999 0.53855,-0.55268c-0.04551,-3.88809 0.14205,-7.7748 0.08516,-11.66289c-0.0031,-0.20583 -0.00034,-0.41201 -0.00034,-0.71783c0.10378,0.15894 0.15032,0.22618 0.19377,0.29617z"
                          data-paper-data='{"glyphName":"N","glyphIndex":17,"word":2}'
                        ></path>
                        <path
                          d="M449.36545,294.24739c0.0262,-0.37512 0.16791,-0.48614 0.53441,-0.48097c1.30948,0.01862 2.6193,-0.00172 3.92878,0.01241c0.3865,0.00414 0.55992,-0.12791 0.54303,-0.52648c-0.01862,-0.44028 -0.00345,-0.88229 -0.00379,-1.32327c-0.00069,-0.70715 -0.0231,-0.74231 -0.74852,-0.74542c-2.24694,-0.01 -4.49422,-0.00862 -6.74115,-0.01379c-0.20652,-0.00069 -0.41408,-0.00483 -0.61923,-0.02448c-1.04572,-0.10068 -2.09351,-0.0431 -3.14061,-0.05172c-0.29996,-0.00241 -0.45339,0.14619 -0.44753,0.46132c0.00862,0.48235 0.00069,0.96504 0.00138,1.44739c0.00103,0.62371 0.06137,0.6868 0.6837,0.68887c0.93746,0.00276 1.87492,0 2.81238,0.00103c0.55992,0.00069 0.56751,0.00172 0.55544,0.57854c-0.0069,0.32995 -0.05965,0.65922 -0.06241,0.98917c-0.0362,4.42388 -0.06482,8.84776 -0.10412,13.27164c-0.00345,0.39891 0.17377,0.54682 0.54648,0.54268c0.50993,-0.00586 1.02021,0.00241 1.53014,-0.00138c0.51372,-0.00345 0.60992,-0.08723 0.60095,-0.60406c-0.0562,-3.28059 0.12205,-6.55911 0.0824,-10.05208c0.04482,-1.24742 -0.05241,-2.7086 0.04827,-4.16943z"
                          data-paper-data='{"glyphName":"T","glyphIndex":18,"word":2}'
                        ></path>
                        <path
                          d="M468.69719,309.61855c1.45497,-0.28238 2.69653,-0.93711 3.66916,-2.06627c0.9085,-1.05503 1.41705,-2.28865 1.30844,-3.6764c-0.1224,-1.56703 -0.90091,-2.85754 -1.96387,-3.9967c-1.10812,-1.18708 -2.4707,-2.06006 -3.71225,-3.08165c-0.6175,-0.50821 -1.13674,-1.07675 -1.29741,-1.90112c-0.13205,-0.67887 0.23411,-1.20984 0.90574,-1.38154c0.4358,-0.11171 0.85264,-0.04965 1.26569,0.02517c0.9809,0.17722 1.78079,0.59647 1.96697,1.70356c0.04068,0.24135 0.20963,0.26479 0.39891,0.25755c0.60578,-0.0231 1.21156,-0.05482 1.81768,-0.07309c0.26858,-0.00827 0.37029,-0.14584 0.35443,-0.39477c-0.07447,-1.17605 -0.5713,-2.15212 -1.4698,-2.89685c-1.32396,-1.09744 -2.86857,-1.42912 -4.55697,-1.23949c-1.92974,0.21687 -3.32782,1.73942 -3.33299,3.67571c-0.00345,1.34706 0.51717,2.48725 1.42015,3.46229c0.77196,0.83333 1.70977,1.46945 2.60551,2.15419c0.95504,0.7299 1.87216,1.496 2.50724,2.54103c0.58233,0.95746 0.61888,1.90491 -0.02517,2.85685c-0.7199,1.06434 -2.25797,1.66046 -3.52435,1.40636c-1.18639,-0.23824 -1.97628,-0.91022 -2.27934,-2.06248c-0.22997,-0.87333 -0.04965,-1.27465 0.54924,-1.53255c0.60992,-0.26272 1.20053,0.01069 1.55462,0.69266c0.15998,0.30789 0.29892,0.63233 0.32099,0.97332c0.02551,0.39374 0.21894,0.50545 0.56372,0.45925c0.54372,-0.07275 1.08399,-0.18515 1.62978,-0.22031c0.44546,-0.02862 0.492,-0.26996 0.42753,-0.6075c-0.18067,-0.94366 -0.51717,-1.81734 -1.10916,-2.59103c-1.66426,-2.17522 -5.17757,-1.80596 -6.30983,0.68232c-0.8123,1.78527 -0.14515,4.02256 1.39774,5.43788c1.11295,1.0209 2.45622,1.48635 4.02911,1.43774c0.25652,-0.02138 0.57096,0.01758 0.8885,-0.04413z"
                          data-paper-data='{"glyphName":"S","glyphIndex":19,"word":2}'
                        ></path>
                        <path
                          d="M484.99927,290.02735c0.01172,-0.33478 -0.11619,-0.46959 -0.45752,-0.46718c-0.56406,0.00414 -1.12881,0.02965 -1.69322,-0.02655c-0.31237,-0.03103 -0.47683,0.10895 -0.47993,0.45683c-0.01793,1.92767 -0.04861,3.85499 -0.07999,5.78232c-0.01379,0.85299 -0.01276,1.70494 -0.05551,2.55896c-0.09654,1.92491 0.04792,3.85637 -0.10654,5.78197c-0.02965,0.37029 0.1517,0.54165 0.50166,0.54889c0.59233,0.01207 1.18467,0.01241 1.777,0.01793c0.24652,0.00241 0.33409,-0.13205 0.34202,-0.36409c0.02138,-0.60475 0.06516,-1.20915 0.07964,-1.81389c0.03655,-1.52772 -0.00172,-3.0551 0.06275,-4.58455c0.09171,-2.1735 -0.03275,-4.35251 0.1055,-6.5267c0,-0.45477 -0.01207,-0.90988 0.00414,-1.36395zM484.25558,306.19825c-0.62026,0.00414 -1.24052,0.0031 -1.86113,0.00103c-0.24135,-0.00069 -0.35306,0.1155 -0.35099,0.35478c0.00276,0.34478 0.00069,0.68922 0.00069,1.034c-0.00069,0 -0.00138,0 -0.00241,0c0,0.30341 0.01379,0.60716 -0.00379,0.90953c-0.02,0.34823 0.10516,0.50614 0.47304,0.49304c0.55061,-0.01965 1.1033,-0.02138 1.65391,0.00103c0.36926,0.01483 0.49924,-0.15343 0.48683,-0.48993c-0.02379,-0.6606 -0.0531,-1.32085 -0.06999,-1.9818c-0.00552,-0.22583 -0.10205,-0.32306 -0.32616,-0.32168z"
                          data-paper-data='{"glyphName":"!","glyphIndex":20,"lastGlyphOfWord":true,"word":2}'
                        ></path>
                      </g>
                      <g data-paper-data='{"isPrimaryText":true}'>
                        <path
                          d="M65.00163,222.47404v34.75696c0,2.94399 1.23112,5.64792 3.18243,7.63167h0.03082c1.95293,1.95293 4.65686,3.18405 7.60085,3.18405c2.97319,0 5.67712,-1.23112 7.63005,-3.18405c1.98213,-1.95455 3.18243,-4.65686 3.18243,-7.63167v-28.20719c0,-0.48174 -0.11841,-0.93105 -0.29845,-1.35278l-15.20171,-39.35381v-17.06219c0,-1.29114 0.51094,-2.46387 1.35115,-3.3349c0.87103,-0.84184 2.04376,-1.38197 3.3349,-1.38197c1.29114,0 2.49307,0.54014 3.33328,1.38197c0.84184,0.87103 1.38197,2.04214 1.38197,3.3349v17.60395c0,1.68043 1.35278,3.0624 3.03483,3.0624c1.71287,0 3.06402,-1.38197 3.06402,-3.0624v-17.60395c0,-2.94399 -1.20193,-5.64792 -3.15486,-7.63167h-0.0292c-1.95293,-1.95293 -4.65686,-3.18405 -7.63005,-3.18405c-2.97319,0 -5.64793,1.23112 -7.63005,3.18405c-1.95293,1.95455 -3.18405,4.65686 -3.18405,7.63167v17.60232h0.0292c0,0.36009 0.06001,0.751 0.21086,1.11109l15.2893,39.59387v27.66867c0,1.29276 -0.54176,2.46387 -1.38197,3.30571c-0.87103,0.87103 -2.04214,1.38197 -3.33328,1.38197c-1.29276,0 -2.46387,-0.51094 -3.30408,-1.35278l-0.03082,-0.0292c-0.84021,-0.84184 -1.35115,-2.01295 -1.35115,-3.30571v-34.75696c0,-1.68205 -1.38197,-3.0332 -3.06402,-3.0332c-1.68205,0 -3.06402,1.35116 -3.06402,3.0332z"
                          data-paper-data='{"glyphName":"S","glyphIndex":0,"firstGlyphOfWord":true,"word":1}'
                        ></path>
                        <path
                          d="M111.96765,257.231c0,1.29276 -0.51094,2.46387 -1.38197,3.30571v0.0292c-0.84021,0.84184 -2.01294,1.35278 -3.33328,1.35278c-1.29276,0 -2.46387,-0.51094 -3.30571,-1.35278l-0.0292,-0.0292c-0.84184,-0.84184 -1.35278,-2.01295 -1.35278,-3.30571v-93.72605c0,-1.68205 -1.38035,-3.06402 -3.0624,-3.06402c-1.68367,0 -3.03483,1.38197 -3.03483,3.06402v93.72605c0,2.94399 1.20193,5.64792 3.15324,7.60085l0.03082,0.03082c1.95293,1.95293 4.65686,3.18405 7.60085,3.18405c2.97319,0 5.67712,-1.23112 7.63005,-3.18405h0.0292c1.95293,-1.98375 3.15486,-4.68768 3.15486,-7.63167v-93.72605c0,-1.68205 -1.35116,-3.06402 -3.0332,-3.06402c-1.68367,0 -3.06565,1.38197 -3.06565,3.06402z"
                          data-paper-data='{"glyphName":"U","glyphIndex":1,"word":1}'
                        ></path>
                        <path
                          d="M134.03381,191.92301h4.71688c2.94399,0 5.6463,-1.2003 7.59923,-3.15323l0.03082,-0.03082c1.95293,-1.95293 3.15486,-4.65524 3.15486,-7.63005v-9.85386c0,-2.94399 -1.20355,-5.6463 -3.15486,-7.63005h-0.03082c-1.95293,-1.95293 -4.65524,-3.18405 -7.59923,-3.18405h-7.7809c-1.68367,0 -3.03483,1.38197 -3.03483,3.06402v101.47613c0,1.68205 1.35278,3.06402 3.03483,3.06402c1.71287,0 3.06402,-1.38197 3.06402,-3.06402zM138.75069,166.53816c1.29114,0 2.46387,0.54014 3.30408,1.38197h0.0292c0.84184,0.87103 1.35278,2.04214 1.35278,3.3349v9.85386c0,1.28952 -0.51094,2.46225 -1.35278,3.33328h-0.0292c-0.84021,0.84184 -2.01294,1.38197 -3.30408,1.38197h-4.71688v-19.28599z"
                          data-paper-data='{"glyphName":"P","glyphIndex":2,"word":1}'
                        ></path>
                        <path
                          d="M177.96825,261.91706h-12.46858v-69.99567h12.46858c1.68205,0 3.0332,-1.38197 3.0332,-3.0624c0,-1.68205 -1.35278,-3.03483 -3.0332,-3.03483h-12.46858v-19.28599h12.46858c1.68205,0 3.0332,-1.35278 3.0332,-3.0332c0,-1.68205 -1.35278,-3.06402 -3.0332,-3.06402h-15.53098c-1.68367,0 -3.03483,1.38197 -3.03483,3.06402v101.47613c0,1.68205 1.35278,3.06402 3.03483,3.06402h15.53098c1.68205,0 3.0332,-1.38197 3.0332,-3.06402c0,-1.68043 -1.35278,-3.0624 -3.0332,-3.0624z"
                          data-paper-data='{"glyphName":"E","glyphIndex":3,"word":1}'
                        ></path>
                        <path
                          d="M196.96715,191.92138h1.95293l7.4792,73.35978c0.18005,1.68367 1.65285,2.8856 3.3349,2.73475c1.68205,-0.18005 2.88398,-1.65285 2.73313,-3.3349l-7.4792,-73.29814c1.65285,-0.51094 3.12404,-1.44199 4.29677,-2.6131l0.0292,-0.03082c1.95293,-1.95293 3.18405,-4.65524 3.18405,-7.63005v-9.85386c0,-2.94399 -1.23112,-5.6463 -3.18405,-7.63005c-1.98213,-1.95293 -4.68606,-3.18405 -7.63005,-3.18405h-7.75008c-1.68205,0 -3.06402,1.38197 -3.06402,3.06402v101.47613c0,1.68205 1.38197,3.06402 3.06402,3.06402c1.68205,0 3.0332,-1.38197 3.0332,-3.06402zM201.68402,166.53817c1.29114,0 2.46225,0.54014 3.30409,1.38197h0.0292c0.84021,0.87103 1.35115,2.04214 1.35115,3.3349v9.85386c0,1.28952 -0.51094,2.46225 -1.35115,3.33328h-0.0292c-0.84184,0.84184 -2.01295,1.38197 -3.30409,1.38197h-4.71688v-19.28599z"
                          data-paper-data='{"glyphName":"R","glyphIndex":4,"lastGlyphOfWord":true,"word":1}'
                        ></path>
                        <path
                          d="M244.6566,264.98108v-73.0597h9.43376v73.0597c0,1.68205 1.35116,3.06402 3.0332,3.06402c1.68205,0 3.06402,-1.38197 3.06402,-3.06402v-93.72605c0,-2.94399 -1.23112,-5.64792 -3.18405,-7.63167c-1.98375,-1.95293 -4.65686,-3.18405 -7.63005,-3.18405c-2.97481,0 -5.67874,1.23112 -7.63167,3.18405c-1.95293,1.95455 -3.18405,4.65686 -3.18405,7.63167v93.72605c0,1.68205 1.38197,3.06402 3.06402,3.06402c1.68205,0 3.0332,-1.38197 3.0332,-3.06402zM244.6566,185.82416v-14.56912c0,-1.29114 0.54014,-2.46387 1.38197,-3.3349c0.87103,-0.84184 2.04214,-1.38197 3.3349,-1.38197c1.29114,0 2.46225,0.54014 3.30409,1.38197h0.0292c0.84184,0.87103 1.38197,2.04214 1.38197,3.3349v14.56912z"
                          data-paper-data='{"glyphName":"A","glyphIndex":5,"firstGlyphOfWord":true,"word":2}'
                        ></path>
                        <path
                          d="M285.55621,257.231c0,1.29276 -0.54014,2.46387 -1.38197,3.30571v0.0292c-0.84021,0.84184 -2.04214,1.35278 -3.33328,1.35278c-1.29114,0 -2.46387,-0.51094 -3.3349,-1.38197c-0.84021,-0.84184 -1.35115,-2.01295 -1.35115,-3.30571v-85.97596c0,-1.29114 0.51094,-2.46387 1.35115,-3.3349c0.87103,-0.84184 2.04214,-1.38197 3.3349,-1.38197c1.29114,0 2.49307,0.54014 3.33328,1.38197c0.84184,0.87103 1.38197,2.04214 1.38197,3.3349v4.92612c0,1.68205 1.35278,3.06402 3.03483,3.06402c1.71125,0 3.06402,-1.38197 3.06402,-3.06402v-4.92612c0,-2.94399 -1.20193,-5.64792 -3.15486,-7.63167h-0.0292c-1.95293,-1.95293 -4.65524,-3.18405 -7.63005,-3.18405c-2.97481,0 -5.64792,1.23112 -7.63167,3.18405c-1.95293,1.95455 -3.18405,4.65686 -3.18405,7.63167v85.97596c0,2.97481 1.23112,5.64792 3.18405,7.63167c1.98375,1.95293 4.65686,3.18405 7.63167,3.18405c2.97319,0 5.6463,-1.23112 7.63005,-3.18405c1.98213,-1.98375 3.18406,-4.68768 3.18406,-7.63167v-55.66499c0,-1.71125 -1.35278,-3.06402 -3.06402,-3.06402c-1.68367,0 -3.03483,1.35116 -3.03483,3.06402z"
                          data-paper-data='{"glyphName":"C","glyphIndex":6,"word":2}'
                        ></path>
                        <path
                          d="M311.79749,166.43273v98.44292c0,1.68205 1.38197,3.06402 3.0624,3.06402c1.68205,0 3.03483,-1.38197 3.03483,-3.06402v-98.44292h12.34693c1.68205,0 3.0332,-1.35278 3.0332,-3.03483c0,-1.68205 -1.35116,-3.06402 -3.0332,-3.06402h-25.68492c-1.68205,0 -3.06402,1.38197 -3.06402,3.06402c0,1.68205 1.38197,3.03483 3.06402,3.03483zM333.27485,178.65963c0,-1.68205 -1.35116,-3.06402 -3.0332,-3.06402c-1.68205,0 -3.06402,1.38197 -3.06402,3.06402v86.21765c0,1.68205 1.38197,3.06402 3.06402,3.06402c1.68205,0 3.0332,-1.38197 3.0332,-3.06402z"
                          data-paper-data='{"glyphName":"","glyphIndex":7,"word":2}'
                        ></path>
                        <path
                          d="M358.51859,201.566c0,2.70393 -1.44199,28.14879 -3.60416,45.84195c-1.02188,8.26102 -0.60178,14.51072 -1.11272,14.51072c-0.51094,0 -0.06001,-6.2497 -1.0819,-14.51072c-2.16217,-17.69316 -3.60416,-43.13802 -3.60416,-45.84195v-38.06105c0,-1.68205 -1.38197,-3.06402 -3.06402,-3.06402c-1.68367,0 -3.03483,1.38197 -3.03483,3.06402v38.06105c0,2.76395 1.44199,28.62892 3.63498,46.59295c1.3836,11.29423 3.6366,19.88615 7.14993,19.88615c3.54577,0 5.76796,-8.59192 7.14993,-19.88615c2.22381,-17.96404 3.6658,-43.82901 3.6658,-46.59295v-38.06105c0,-1.68205 -1.35116,-3.06402 -3.03483,-3.06402c-1.68205,0 -3.06402,1.38197 -3.06402,3.06402z"
                          data-paper-data='{"glyphName":"V","glyphIndex":8,"word":2}'
                        ></path>
                        <path
                          d="M380.5815,163.50495c0,-1.68205 -1.35116,-3.06402 -3.0332,-3.06402c-1.68205,0 -3.06402,1.38197 -3.06402,3.06402v101.47613c0,1.68205 1.38197,3.06402 3.06402,3.06402c1.68205,0 3.0332,-1.38197 3.0332,-3.06402z"
                          data-paper-data='{"glyphName":"I","glyphIndex":9,"word":2}'
                        ></path>
                        <path
                          d="M400.68501,166.43273v98.44292c0,1.68205 1.38197,3.06402 3.0624,3.06402c1.68205,0 3.03483,-1.38197 3.03483,-3.06402v-98.44292h12.34693c1.68205,0 3.0332,-1.35278 3.0332,-3.03483c0,-1.68205 -1.35116,-3.06402 -3.0332,-3.06402h-25.68492c-1.68205,0 -3.06402,1.38197 -3.06402,3.06402c0,1.68205 1.38197,3.03483 3.06402,3.03483zM422.16237,178.65963c0,-1.68205 -1.35116,-3.06402 -3.0332,-3.06402c-1.68205,0 -3.06402,1.38197 -3.06402,3.06402v86.21765c0,1.68205 1.38197,3.06402 3.06402,3.06402c1.68205,0 3.0332,-1.38197 3.0332,-3.06402z"
                          data-paper-data='{"glyphName":"","glyphIndex":10,"word":2}'
                        ></path>
                        <path
                          d="M450.47013,261.91706h-12.46858v-69.99567h12.46858c1.68205,0 3.0332,-1.38197 3.0332,-3.0624c0,-1.68205 -1.35278,-3.03483 -3.0332,-3.03483h-12.46858v-19.28599h12.46858c1.68205,0 3.0332,-1.35278 3.0332,-3.0332c0,-1.68205 -1.35278,-3.06402 -3.0332,-3.06402h-15.53098c-1.68367,0 -3.03483,1.38197 -3.03483,3.06402v101.47613c0,1.68205 1.35278,3.06402 3.03483,3.06402h15.53098c1.68205,0 3.0332,-1.38197 3.0332,-3.06402c0,-1.68043 -1.35278,-3.0624 -3.0332,-3.0624z"
                          data-paper-data='{"glyphName":"E","glyphIndex":11,"word":2}'
                        ></path>
                        <path
                          d="M463.37341,222.47404v34.75696c0,2.94399 1.23112,5.64792 3.18243,7.63167h0.03082c1.95293,1.95293 4.65686,3.18405 7.60085,3.18405c2.97319,0 5.67712,-1.23112 7.63005,-3.18405c1.98213,-1.95455 3.18243,-4.65686 3.18243,-7.63167v-28.20719c0,-0.48174 -0.11841,-0.93105 -0.29845,-1.35278l-15.20171,-39.35381v-17.06219c0,-1.29114 0.51094,-2.46387 1.35115,-3.3349c0.87103,-0.84184 2.04376,-1.38197 3.3349,-1.38197c1.29114,0 2.49307,0.54014 3.33328,1.38197c0.84184,0.87103 1.38197,2.04214 1.38197,3.3349v17.60395c0,1.68043 1.35278,3.0624 3.03483,3.0624c1.71287,0 3.06402,-1.38197 3.06402,-3.0624v-17.60395c0,-2.94399 -1.20193,-5.64792 -3.15486,-7.63167h-0.0292c-1.95293,-1.95293 -4.65686,-3.18405 -7.63005,-3.18405c-2.97319,0 -5.64793,1.23112 -7.63005,3.18405c-1.95293,1.95455 -3.18405,4.65686 -3.18405,7.63167v17.60232h0.0292c0,0.36009 0.06001,0.751 0.21086,1.11109l15.2893,39.59387v27.66867c0,1.29276 -0.54176,2.46387 -1.38197,3.30571c-0.87103,0.87103 -2.04214,1.38197 -3.33328,1.38197c-1.29276,0 -2.46387,-0.51094 -3.30408,-1.35278l-0.03082,-0.0292c-0.84021,-0.84184 -1.35115,-2.01295 -1.35115,-3.30571v-34.75696c0,-1.68205 -1.38197,-3.0332 -3.06402,-3.0332c-1.68205,0 -3.06402,1.35116 -3.06402,3.0332z"
                          data-paper-data='{"glyphName":"S","glyphIndex":12,"lastGlyphOfWord":true,"word":2}'
                        ></path>
                      </g>
                    </g>
                  </g>
                </svg>